<?xml version="1.0" encoding="UTF-8" standalone="no"?><!DOCTYPE svg PUBLIC "-//W3C//DTD SVG 1.1//EN" "http://www.w3.org/Graphics/SVG/1.1/DTD/svg11.dtd"><svg width="100%" height="100%" viewBox="0 0 200 200" version="1.1" xmlns="http://www.w3.org/2000/svg" xmlns:xlink="http://www.w3.org/1999/xlink" xml:space="preserve" xmlns:serif="http://www.serif.com/" style="fill-rule:evenodd;clip-rule:evenodd;stroke-linejoin:round;stroke-miterlimit:2;"><g><g><path d="M165.177,97.091l-62.337,-62.337c-2.494,-2.494 -5.957,-4.017 -9.766,-4.017l-48.485,-0c-7.619,-0 -13.852,6.233 -13.852,13.852l-0,48.485c-0,3.809 1.523,7.272 4.086,9.835l62.337,62.337c2.494,2.494 5.957,4.017 9.766,4.017c3.81,0 7.273,-1.523 9.766,-4.086l48.485,-48.485c2.563,-2.493 4.086,-5.956 4.086,-9.766c0,-3.809 -1.593,-7.342 -4.086,-9.835Zm-110.198,-31.723c-5.749,0 -10.39,-4.64 -10.39,-10.389c0,-5.749 4.641,-10.39 10.39,-10.39c5.749,0 10.389,4.641 10.389,10.39c0,5.749 -4.64,10.389 -10.389,10.389Z" style="fill:#d64b4b;"/><rect x="65.368" y="65.368" width="78.376" height="78.376" style="fill:none;fill-rule:nonzero;"/><path d="M126.437,105.863c-0.915,-0.523 -1.862,-0.947 -2.809,-1.307c0.947,-0.359 1.894,-0.783 2.809,-1.306c6.27,-3.625 9.764,-10.189 9.797,-16.949c-5.846,-3.363 -13.292,-3.625 -19.595,0c-0.914,0.523 -1.763,1.143 -2.547,1.764c0.164,-1.013 0.262,-2.058 0.262,-3.103c-0,-7.249 -3.952,-13.552 -9.798,-16.949c-5.845,3.397 -9.797,9.7 -9.797,16.949c0,1.045 0.098,2.09 0.262,3.103c-0.784,-0.653 -1.633,-1.274 -2.548,-1.796c-6.27,-3.625 -13.715,-3.364 -19.594,-0c0,6.76 3.495,13.324 9.797,16.949c0.915,0.522 1.862,0.947 2.809,1.306c-0.947,0.359 -1.894,0.784 -2.809,1.306c-6.27,3.625 -9.764,10.189 -9.797,16.949c5.846,3.364 13.292,3.625 19.594,-0c0.915,-0.523 1.764,-1.143 2.548,-1.764c-0.164,1.046 -0.262,2.091 -0.262,3.136c0,7.249 3.952,13.552 9.797,16.948c5.846,-3.396 9.798,-9.699 9.798,-16.948c-0,-1.045 -0.098,-2.09 -0.262,-3.103c0.784,0.653 1.633,1.241 2.547,1.764c6.271,3.625 13.716,3.363 19.595,-0c-0.033,-6.76 -3.527,-13.324 -9.797,-16.949Zm-21.881,11.756c-7.217,0 -13.062,-5.845 -13.062,-13.063c-0,-7.217 5.845,-13.062 13.062,-13.062c7.218,-0 13.063,5.845 13.063,13.062c0,7.218 -5.845,13.063 -13.063,13.063Z" style="fill:#00be67;fill-rule:nonzero;"/></g><rect x="-33.275" y="-33.275" width="266.549" height="266.549" style="fill:none;fill-rule:nonzero;"/><path d="M0.044,22.257l22.213,-0l-0,-22.213c-12.217,0 -22.213,9.996 -22.213,22.213Zm0,88.849l22.213,0l-0,-22.212l-22.213,-0l0,22.212Zm44.425,88.85l22.212,-0l0,-22.213l-22.212,0l-0,22.213Zm-44.425,-133.275l22.213,0l-0,-22.212l-22.213,-0l0,22.212Zm111.062,-66.637l-22.212,0l-0,22.213l22.212,-0l0,-22.213Zm66.637,0l0,22.213l22.213,-0c-0,-12.217 -9.996,-22.213 -22.213,-22.213Zm-155.486,199.912l-0,-22.213l-22.213,0c0,12.217 9.996,22.213 22.213,22.213Zm-22.213,-44.425l22.213,0l-0,-22.212l-22.213,-0l0,22.212Zm66.637,-155.487l-22.212,0l-0,22.213l22.212,-0l0,-22.213Zm22.213,199.912l22.212,-0l0,-22.213l-22.212,0l-0,22.213Zm88.849,-88.85l22.213,0l-0,-22.212l-22.213,-0l0,22.212Zm0,88.85c12.217,-0 22.213,-9.996 22.213,-22.213l-22.213,0l0,22.213Zm0,-133.275l22.213,0l-0,-22.212l-22.213,-0l0,22.212Zm0,88.85l22.213,0l-0,-22.212l-22.213,-0l0,22.212Zm-44.424,44.425l22.212,-0l0,-22.213l-22.212,0l-0,22.213Zm-0,-177.699l22.212,-0l0,-22.213l-22.212,0l-0,22.213Z" style="fill:#2c2c2c;fill-rule:nonzero;"/></g></svg>