<?xml version="1.0" standalone="no"?>
<!DOCTYPE svg PUBLIC "-//W3C//DTD SVG 20010904//EN"
 "http://www.w3.org/TR/2001/REC-SVG-20010904/DTD/svg10.dtd">
<svg version="1.0" xmlns="http://www.w3.org/2000/svg"
 width="700.000000pt" height="700.000000pt" viewBox="0 0 700.000000 700.000000"
 preserveAspectRatio="xMidYMid meet">
<metadata>
Created by potrace 1.11, written by Peter Selinger 2001-2013
</metadata>
<g transform="translate(0.000000,700.000000) scale(0.100000,-0.100000)"
fill="#000000" stroke="none">
<path d="M612 6979 c-282 -61 -528 -301 -588 -574 -14 -62 -20 -104 -19 -140
l0 -40 388 -2 387 -2 -2 387 -3 387 -42 0 c-22 1 -77 -7 -121 -16z"/>
<path d="M1557 6992 c-1 -4 -3 -178 -2 -387 l0 -380 388 -3 c213 -1 387 1 388
5 3 26 4 741 1 754 -3 15 -41 17 -388 17 -211 0 -385 -2 -387 -6z"/>
<path d="M3110 6609 l0 -389 390 0 390 0 0 389 0 389 -390 0 -390 0 0 -389z"/>
<path d="M4665 6610 l0 -389 390 2 389 2 0 385 0 385 -389 2 -390 2 0 -389z"/>
<path d="M6220 6610 l0 -390 390 0 391 1 -6 57 c-11 101 -14 120 -36 184 -103
300 -369 511 -672 532 l-67 5 0 -389z"/>
<path d="M1525 5922 c-114 -15 -191 -46 -273 -111 -85 -68 -155 -191 -170
-301 -8 -60 -7 -1793 1 -1845 8 -54 32 -120 64 -175 36 -62 2271 -2299 2338
-2339 149 -90 307 -99 465 -25 74 34 93 53 981 942 630 631 914 921 932 954
78 144 78 324 0 472 -21 39 -293 317 -1142 1170 -614 615 -1142 1138 -1174
1161 -56 43 -134 78 -199 91 -31 7 -1780 12 -1823 6z m561 -523 c130 -64 207
-196 199 -342 -20 -382 -540 -473 -696 -122 -17 39 -22 70 -23 140 0 81 3 96
32 156 89 185 304 259 488 168z"/>
<path d="M10 5440 c-5 -3 -8 -178 -7 -390 l2 -384 378 -1 c209 0 383 3 388 6
5 3 8 164 7 389 l-3 385 -378 0 c-209 0 -383 -2 -387 -5z"/>
<path d="M6237 5442 c-16 -3 -17 -36 -17 -388 l0 -384 23 -1 c12 -1 187 -2
388 -3 l367 -1 0 388 c0 213 -3 387 -6 388 -18 3 -741 4 -755 1z"/>
<path d="M2 3500 l1 -390 388 0 389 0 0 390 0 390 -389 0 -389 0 0 -390z"/>
<path d="M6220 3500 l0 -390 389 0 389 0 0 390 0 390 -389 0 -389 0 0 -390z"/>
<path d="M18 2332 c-15 -3 -16 -44 -16 -390 l1 -387 376 2 c207 0 382 1 389 2
9 1 12 85 12 386 0 360 -1 385 -17 386 -47 3 -731 4 -745 1z"/>
<path d="M6224 2331 c-2 -2 -4 -176 -4 -387 0 -297 3 -383 13 -386 6 -2 181
-3 387 -3 l375 1 0 389 0 389 -383 1 c-211 0 -386 -2 -388 -4z"/>
<path d="M5 723 c11 -126 35 -208 92 -312 127 -233 351 -380 621 -406 l62 -7
0 391 0 391 -390 0 -389 0 4 -57z"/>
<path d="M1559 763 c-3 -55 -4 -740 -1 -749 2 -9 109 -12 388 -11 211 0 384 3
385 6 1 3 2 178 2 389 l2 382 -387 0 c-363 0 -388 -1 -389 -17z"/>
<path d="M3110 391 l0 -388 390 0 390 0 0 388 0 389 -390 0 -390 0 0 -389z"/>
<path d="M4669 758 c-4 -90 -3 -742 1 -748 3 -4 178 -7 390 -6 l385 1 -1 385
0 385 -387 3 -387 2 -1 -22z"/>
<path d="M6222 393 l3 -388 45 1 c75 2 140 16 240 51 54 20 191 107 240 154
143 136 226 308 245 507 l5 62 -390 0 -390 0 2 -387z"/>
</g>
</svg>
